<svg xmlns="http://www.w3.org/2000/svg" version="1.1" xmlns:xlink="http://www.w3.org/1999/xlink" width="15" height="15" x="0" y="0" viewBox="0 0 512.001 512.001" style="enable-background:new 0 0 512 512" xml:space="preserve" class=""><g><path d="M386.906 125.155c-5.433-5.435-14.242-5.435-19.677 0L125.216 367.168c-5.433 5.433-5.433 14.243 0 19.677a13.87 13.87 0 0 0 9.838 4.075 13.87 13.87 0 0 0 9.838-4.075l242.013-242.013c5.434-5.434 5.434-14.244.001-19.677z" fill="#62666d" opacity="1" data-original="#000000"></path><path d="M437.08 74.981C388.727 26.628 324.44 0 256.062 0 187.68 0 123.393 26.628 75.042 74.981 26.69 123.334.061 187.62.061 256.001s26.629 132.667 74.981 181.02c48.351 48.353 112.638 74.981 181.02 74.981 68.38 0 132.667-26.628 181.02-74.981 99.812-99.816 99.812-262.226-.002-362.04zm-19.677 342.361c-43.096 43.096-100.394 66.83-161.342 66.83s-118.245-23.734-161.342-66.83C51.621 374.246 27.889 316.946 27.889 256S51.622 137.754 94.72 94.658c43.095-43.096 100.394-66.83 161.342-66.83s118.245 23.734 161.342 66.83c88.962 88.964 88.962 233.72-.001 322.684z" fill="#62666d" opacity="1" data-original="#000000"></path><path d="M217.202 150.241c-18.444-18.444-48.456-18.444-66.9 0s-18.444 48.454 0 66.9c9.222 9.222 21.337 13.833 33.45 13.833 12.113 0 24.228-4.611 33.45-13.833 18.444-18.444 18.444-48.454 0-66.9zm-19.678 47.222c-7.593 7.594-19.952 7.594-27.545 0s-7.593-19.951.001-27.545a19.416 19.416 0 0 1 13.772-5.696c4.988 0 9.976 1.899 13.772 5.696 7.594 7.594 7.594 19.951 0 27.545zM361.821 294.859c-18.444-18.444-48.457-18.444-66.9 0-18.444 18.444-18.444 48.454 0 66.9 9.222 9.222 21.337 13.833 33.45 13.833 12.113 0 24.228-4.611 33.45-13.833 18.444-18.444 18.444-48.455 0-66.9zm-19.678 47.223c-7.593 7.594-19.952 7.594-27.545 0-7.594-7.594-7.594-19.951 0-27.545a19.416 19.416 0 0 1 13.772-5.696c4.988 0 9.976 1.899 13.772 5.696 7.595 7.594 7.595 19.951.001 27.545z" fill="#62666d" opacity="1" data-original="#000000"></path></g></svg>