<svg xmlns="http://www.w3.org/2000/svg" version="1.1" xmlns:xlink="http://www.w3.org/1999/xlink" width="17" height="17" x="0" y="0" viewBox="0 0 256 256" style="enable-background:new 0 0 512 512" xml:space="preserve" class=""><g><path d="M235.42 56.95H66.06c-8.38 0-16.42 3.97-21.52 10.61L4.95 119.12c-6.59 8.58-6.59 20.58 0 29.16l39.59 51.56c5.1 6.64 13.15 10.61 21.52 10.61h169.36c11.35 0 20.58-9.23 20.58-20.58V77.53c0-11.35-9.23-20.58-20.58-20.58zM248 189.87c0 6.94-5.64 12.58-12.58 12.58H66.06c-5.91 0-11.58-2.8-15.17-7.48L11.3 143.41a15.964 15.964 0 0 1 0-19.42l39.59-51.56c3.6-4.68 9.27-7.48 15.17-7.48h169.36c6.94 0 12.58 5.64 12.58 12.58z" fill="#2c2f33" opacity="1" data-original="#3f4247"></path><path d="M39.6 118.6c-8.32 0-15.09 6.77-15.09 15.09s6.77 15.09 15.09 15.09 15.09-6.77 15.09-15.09-6.77-15.09-15.09-15.09zm0 22.19c-3.91 0-7.09-3.18-7.09-7.09s3.18-7.09 7.09-7.09 7.09 3.18 7.09 7.09-3.18 7.09-7.09 7.09zM181.42 123.43c6.86 0 12.45-5.58 12.45-12.45s-5.58-12.45-12.45-12.45-12.45 5.58-12.45 12.45 5.58 12.45 12.45 12.45zm0-16.9c2.45 0 4.45 2 4.45 4.45s-2 4.45-4.45 4.45-4.45-2-4.45-4.45 2-4.45 4.45-4.45zM213.99 143.97c-6.86 0-12.45 5.58-12.45 12.45s5.58 12.45 12.45 12.45 12.45-5.58 12.45-12.45-5.58-12.45-12.45-12.45zm0 16.9c-2.45 0-4.45-2-4.45-4.45s2-4.45 4.45-4.45 4.45 2 4.45 4.45-2 4.45-4.45 4.45zM222.16 99.27c-1.8-1.28-4.3-.86-5.58.94l-44.28 62.33a4.003 4.003 0 0 0 3.25 6.32c1.25 0 2.49-.59 3.26-1.68l44.28-62.33c1.28-1.8.86-4.3-.94-5.58zM137.96 98.53c-10.84 0-19.66 8.82-19.66 19.66v31.02c0 10.84 8.82 19.66 19.66 19.66s19.66-8.82 19.66-19.66v-31.02c0-10.84-8.82-19.66-19.66-19.66zm11.66 50.68c0 6.43-5.23 11.66-11.66 11.66s-11.66-5.23-11.66-11.66v-31.02c0-6.43 5.23-11.66 11.66-11.66s11.66 5.23 11.66 11.66zM106.26 160.87H78.72v-1.76c0-5.39 2.96-10.3 7.71-12.83l11.62-6.18a22.434 22.434 0 0 0 11.93-19.85v-2.08c0-10.82-8.81-19.63-19.63-19.63s-19.63 8.81-19.63 19.63c0 2.21 1.79 4 4 4s4-1.79 4-4c0-6.41 5.22-11.63 11.63-11.63s11.63 5.22 11.63 11.63v2.08c0 5.37-2.94 10.27-7.68 12.79l-11.62 6.18a22.497 22.497 0 0 0-11.96 19.9v5.76c0 2.21 1.79 4 4 4h31.54c2.21 0 4-1.79 4-4s-1.79-4-4-4z" fill="#3f4247" opacity="1" data-original="#3f4247"></path></g></svg>