<svg xmlns="http://www.w3.org/2000/svg" version="1.1" xmlns:xlink="http://www.w3.org/1999/xlink" width="15" height="15" x="0" y="0" viewBox="0 0 512 512" style="enable-background:new 0 0 512 512" xml:space="preserve" class=""><g><path d="M504.5 382.5h-20v-43h5c12.406 0 22.5-10.094 22.5-22.5s-10.094-22.5-22.5-22.5h-96.645v-24h6.895c4.145 0 7.5-3.355 7.5-7.5a7.5 7.5 0 0 0-7.5-7.5h-6.895v-73.09c0-12.406-10.093-22.5-22.5-22.5s-22.5 10.094-22.5 22.5v73.09H283.5a6.508 6.508 0 0 1-6.5-6.5V133.004a6.51 6.51 0 0 1 6.5-6.5h170c3.586 0 6.5 2.918 6.5 6.5v116c0 3.582-2.914 6.5-6.5 6.5H432a7.497 7.497 0 0 0-7.5 7.5 7.5 7.5 0 0 0 7.5 7.5h21.5c11.855 0 21.5-9.645 21.5-21.5v-116c0-11.856-9.645-21.5-21.5-21.5h-60.527V91.44h42.382c6.34 0 11.5-5.16 11.5-11.5v-42c0-6.34-5.16-11.5-11.5-11.5h-130c-6.343 0-11.5 5.16-11.5 11.5v42c0 6.34 5.157 11.5 11.5 11.5h42.38v20.063H283.5c-11.855 0-21.5 9.644-21.5 21.5v116c0 11.855 9.645 21.5 21.5 21.5h64.355v24h-113.39v-41.285c0-35.297-21.672-65.871-52.617-78.735 15.246-8.593 26.77-23.027 31.515-40.254.117 0 .239.012.356.012 17.11 0 31.031-15.027 31.031-33.5 0-15.383-9.828-28.523-23.059-32.36-.148-4.32-.613-7.663-.851-9.148.008-2.867-.293-12.109-4.121-21.812-6.274-15.914-18.692-25.488-35.907-27.688-.859-.109-1.707-.504-2.445-1.132C171.497 2.719 156.711-3.2 125.285 2 106.555 5.102 92.348 16.145 84.2 33.938c-4.758 10.398-6.996 22.93-7.394 34.449-13.227 3.84-23.055 16.976-23.055 32.355 0 18.473 13.922 33.5 31.031 33.5.117 0 .239-.012.356-.012 4.746 17.223 16.265 31.66 31.511 40.25-31.086 12.918-52.617 43.598-52.617 78.739v41.285H22.5c-12.406 0-22.5 10.094-22.5 22.5s10.094 22.5 22.5 22.5h5v4.5c0 4.14 3.355 7.5 7.5 7.5s7.5-3.36 7.5-7.5v-4.5h427v43h-427v-6.668c0-4.14-3.355-7.5-7.5-7.5s-7.5 3.36-7.5 7.5v6.668h-20a7.497 7.497 0 0 0-7.5 7.5v30a7.5 7.5 0 0 0 7.5 7.5h20V504.5A7.5 7.5 0 0 0 35 512h381a7.5 7.5 0 1 0 0-15H42.5v-69.5h427V497h-21.832a7.5 7.5 0 1 0 0 15H477a7.5 7.5 0 0 0 7.5-7.5v-77h20c4.145 0 7.5-3.355 7.5-7.5v-30a7.5 7.5 0 0 0-7.5-7.5zM308.855 41.441h123v35h-123zm53.88 50h15.238v20.063h-15.239zm.12 90.97c0-4.138 3.364-7.5 7.5-7.5 4.133 0 7.5 3.362 7.5 7.5v80.515c0 .023-.003.05-.003.078l.003.074v30.832h-15zm-180.832 8.737a51.426 51.426 0 0 1-32.777 11.793 51.413 51.413 0 0 1-32.77-11.793c20.91-11.086 45.454-10.652 65.547 0zm47.727-90.406c0 9.434-6.148 17.223-14.062 18.348.12-3.3.03-.559.062-23.09 2.621-2.996 3.883-7.438 4.79-11.965 5.425 2.98 9.21 9.375 9.21 16.707zM127.734 16.797c28.88-4.777 38.594 1.242 40.883 3.2 2.965 2.538 6.528 4.136 10.293 4.616 11.64 1.489 19.39 7.348 23.695 17.914 3.797 9.309 2.989 16.692 3.352 18.672.027.14 2.477 13.68-1.371 24.48-3.773-3.429-7.168-11.87-8.957-22.367-.852-4.968-3.79-9.457-8.066-12.312-4.333-2.89-7.848-6.047-10.454-9.375a15.23 15.23 0 0 0-12.039-5.871c-3.187 0-6.414.992-9.21 3.031-7.22 5.274-21.106 9.848-38.094 12.543-7.668 1.219-13.86 7.137-15.407 14.73-1.89 9.266-5.011 16.497-8.437 19.618-1.277-3.574-1.863-7.446-2.074-11.035v-.036c0-.117-.016-.234-.024-.351-1.34-25.805 8.77-52.961 35.91-57.457zM68.75 100.742c0-7.332 3.785-13.722 9.215-16.703.902 4.5 2.215 9.016 4.785 11.953.031 22.54-.059 19.801.063 23.098-7.915-1.125-14.063-8.914-14.063-18.348zm29 15.883v-16.18a14.24 14.24 0 0 0 4.766-2.414c6.793-5.23 11.687-14.98 14.539-28.972a3.73 3.73 0 0 1 3.062-2.914c13.828-2.196 32.785-6.622 44.59-15.243.191-.14.465-.191.59-.03 3.59 4.585 8.277 8.827 13.937 12.605.864.578 1.45 1.437 1.606 2.359 1.84 10.781 5.96 25.117 15.14 32.187a14.276 14.276 0 0 0 4.774 2.414v16.188c0 28.328-23.05 51.379-51.383 51.379h-.238c-28.332 0-51.383-23.05-51.383-51.379zM79.035 253.219c0-21.34 9.578-40.473 24.653-53.364a66.397 66.397 0 0 0 45.558 18.082h.004a66.407 66.407 0 0 0 45.563-18.082c15.07 12.891 24.652 32.024 24.652 53.364v41.285H79.035zM22.5 324.504c-4.137 0-7.5-3.367-7.5-7.5 0-4.137 3.363-7.5 7.5-7.5h467c4.137 0 7.5 3.363 7.5 7.5 0 4.133-3.363 7.5-7.5 7.5zM497 412.5H15v-15h482zm0 0" fill="#62666d" opacity="1" data-original="#62666d"></path><path d="M193 234.004h-34a7.497 7.497 0 0 0-7.5 7.5 7.5 7.5 0 0 0 7.5 7.5h34a7.5 7.5 0 0 0 7.5-7.5c0-4.145-3.355-7.5-7.5-7.5zm0 0" fill="#62666d" opacity="1" data-original="#62666d"></path></g></svg>