<svg xmlns="http://www.w3.org/2000/svg" version="1.1" xmlns:xlink="http://www.w3.org/1999/xlink" width="17" height="17" x="0" y="0" viewBox="0 0 96 96" style="enable-background:new 0 0 512 512" xml:space="preserve" class=""><g><path d="M82 16H14C8.486 16 4 20.486 4 26v44c0 5.514 4.486 10 10 10h68c5.514 0 10-4.486 10-10V26c0-5.514-4.486-10-10-10zm6 10v15H56v-7c0-.632-.299-1.228-.806-1.604a2.009 2.009 0 0 0-1.769-.312L40.95 35.826a9.98 9.98 0 0 0-4.951-2.625V20h46A6.006 6.006 0 0 1 88 26zM49.046 61h-5.692l-3.861-9.653c.523-.345 1.01-.739 1.458-1.173l4.278 1.283zM34 37c3.309 0 6 2.691 6 6s-2.691 6-6 6-6-2.691-6-6 2.691-6 6-6zm-9.283 9.697L16 49.312V36.688l8.717 2.615C24.259 40.448 24 41.694 24 43s.259 2.552.717 3.697zm-1.946 4.76 4.278-1.283c.448.434.935.828 1.458 1.173L24.646 61h-5.692zm20.512-4.76C43.741 45.552 44 44.306 44 43s-.259-2.552-.717-3.697L52 36.688v12.623zM14 20h18v13.202a9.98 9.98 0 0 0-4.951 2.625l-12.474-3.742a2.005 2.005 0 0 0-1.769.312A1.994 1.994 0 0 0 12 34v7H8V26c0-3.309 2.691-6 6-6zM8 70V45h4v7a1.998 1.998 0 0 0 2 2c.192 0 .386-.027.575-.084l3.301-.99-3.732 9.331A1.999 1.999 0 0 0 16 65h10a2 2 0 0 0 1.857-1.257L32 53.385V76H14c-3.309 0-6-2.691-6-6zm74 6H36V53.385l4.143 10.358A2 2 0 0 0 42 65h10a1.998 1.998 0 0 0 1.857-2.743l-3.733-9.331 3.301.99A2 2 0 0 0 56 52v-7h32v25c0 3.309-2.691 6-6 6z" fill="#62666d" opacity="1" data-original="#62666d" class=""></path></g></svg>